<svg width="68" height="68" viewBox="0 0 68 68" fill="none" xmlns="http://www.w3.org/2000/svg">
<rect width="68" height="68" rx="34" fill="#F4F7FF"/>
<path fill-rule="evenodd" clip-rule="evenodd" d="M26.7408 24.649C26.8556 24.762 26.9467 24.8962 27.0089 25.0439C27.0711 25.1916 27.1031 25.35 27.1031 25.5099C27.1031 25.6699 27.0711 25.8283 27.0089 25.976C26.9467 26.1237 26.8556 26.2579 26.7408 26.3709L18.9791 34.0218L26.7408 41.6728C26.9724 41.9011 27.1024 42.2108 27.1024 42.5337C27.1024 42.8566 26.9724 43.1663 26.7408 43.3946C26.5092 43.623 26.1952 43.7512 25.8677 43.7512C25.5402 43.7512 25.2262 43.623 24.9946 43.3946L16.3623 34.8827C16.2475 34.7698 16.1563 34.6356 16.0942 34.4879C16.032 34.3401 16 34.1818 16 34.0218C16 33.8619 16.032 33.7035 16.0942 33.5558C16.1563 33.4081 16.2475 33.2739 16.3623 33.1609L24.9946 24.649C25.1092 24.5358 25.2452 24.4459 25.3951 24.3846C25.5449 24.3233 25.7055 24.2918 25.8677 24.2918C26.0299 24.2918 26.1905 24.3233 26.3403 24.3846C26.4902 24.4459 26.6262 24.5358 26.7408 24.649ZM42.2592 24.649C42.1444 24.762 42.0533 24.8962 41.9911 25.0439C41.9289 25.1916 41.8969 25.35 41.8969 25.5099C41.8969 25.6699 41.9289 25.8283 41.9911 25.976C42.0533 26.1237 42.1444 26.2579 42.2592 26.3709L50.0209 34.0218L42.2592 41.6728C42.1446 41.7859 42.0536 41.9201 41.9915 42.0678C41.9295 42.2155 41.8976 42.3738 41.8976 42.5337C41.8976 42.6936 41.9295 42.8519 41.9915 42.9996C42.0536 43.1474 42.1446 43.2816 42.2592 43.3946C42.3739 43.5077 42.51 43.5974 42.6598 43.6586C42.8096 43.7197 42.9702 43.7512 43.1323 43.7512C43.2945 43.7512 43.455 43.7197 43.6048 43.6586C43.7546 43.5974 43.8907 43.5077 44.0054 43.3946L52.6377 34.8827C52.7525 34.7698 52.8437 34.6356 52.9058 34.4879C52.968 34.3401 53 34.1818 53 34.0218C53 33.8619 52.968 33.7035 52.9058 33.5558C52.8437 33.4081 52.7525 33.2739 52.6377 33.1609L44.0054 24.649C43.8908 24.5358 43.7548 24.4459 43.6049 24.3846C43.4551 24.3233 43.2945 24.2918 43.1323 24.2918C42.9701 24.2918 42.8095 24.3233 42.6597 24.3846C42.5098 24.4459 42.3738 24.5358 42.2592 24.649ZM39.7953 17.0516C40.1076 17.1468 40.3687 17.3604 40.5213 17.6455C40.6739 17.9305 40.7055 18.2636 40.6092 18.5715L30.7437 50.1871C30.6381 50.4836 30.4201 50.7282 30.1356 50.8697C29.851 51.0112 29.522 51.0386 29.2174 50.9462C28.9128 50.8537 28.6564 50.6486 28.5018 50.3738C28.3473 50.099 28.3066 49.7758 28.3883 49.4721L38.2538 17.8565C38.3504 17.5487 38.5671 17.2912 38.8561 17.1407C39.1452 16.9902 39.483 16.959 39.7953 17.054V17.0516Z" fill="#637681"/>
</svg>
